<?xml version="1.0" encoding="iso-8859-1"?>
<!-- Generator: Adobe Illustrator 19.0.0, SVG Export Plug-In . SVG Version: 6.00 Build 0)  -->
<svg version="1.1" id="Layer_1" xmlns="http://www.w3.org/2000/svg" xmlns:xlink="http://www.w3.org/1999/xlink" x="0px" y="0px"
	 viewBox="0 0 512 512" style="enable-background:new 0 0 512 512;" xml:space="preserve">
<circle style="fill:#FFEDB5;" cx="256" cy="256" r="256"/>
<path style="fill:#FEE187;" d="M107.489,381.492l129.826,129.826C243.486,511.762,249.716,512,256,512
	c141.384,0,256-114.616,256-256c0-0.2-0.007-0.398-0.007-0.598L363.63,106.53l-27.41,18.068l-17.872-18.377l-12.929,3.244
	l-9.185,43.663l58.906,58.906l-17.817,14.172l-48.59-48.59l-135.878,34.175V353.83L107.489,381.492z"/>
<path style="fill:#FF314F;" d="M333.045,220.696c0-11.274,7.296-16.294,16.294-16.294s16.294,7.296,16.294,16.294
	c0-8.999,7.296-16.294,16.294-16.294c8.999,0,16.294,6.996,16.294,16.294c0,22.795-32.589,35.304-32.589,35.304
	S333.045,243.655,333.045,220.696z"/>
<path style="fill:#A30F44;" d="M365.633,220.696c0-8.999,7.296-16.294,16.294-16.294c8.999,0,16.294,6.996,16.294,16.294
	c0,22.795-32.589,35.304-32.589,35.304L365.633,220.696L365.633,220.696z"/>
<path style="fill:#FF314F;" d="M280.135,122.109c0-15.507,10.033-22.411,22.411-22.411s22.411,10.033,22.411,22.411
	c0-12.378,10.033-22.411,22.411-22.411s22.411,9.621,22.411,22.411c0,31.353-44.822,48.557-44.822,48.557
	S280.135,153.69,280.135,122.109z"/>
<path style="fill:#A30F44;" d="M324.956,122.109c0-12.378,10.033-22.411,22.411-22.411s22.411,9.621,22.411,22.411
	c0,31.353-44.822,48.557-44.822,48.557V122.109z"/>
<path style="fill:#59595B;" d="M292.202,184.951c0-2.839-1.272-5.532-3.47-7.332c-2.198-1.801-5.092-2.522-7.87-1.967
	l-124.368,24.872c-4.432,0.888-7.623,4.777-7.623,9.299v118.572c-4.637-2.338-9.856-3.684-15.393-3.684
	c-18.942,0-34.356,15.412-34.356,34.356s15.412,34.354,34.356,34.354c18.615,0,33.785-14.891,34.306-33.383
	c0.033-0.319,0.05-0.643,0.05-0.971v-91.722l105.405-21.082v57.258c-4.637-2.338-9.856-3.684-15.393-3.684
	c-18.942,0-34.356,15.412-34.356,34.356s15.412,34.356,34.356,34.356c18.615,0,33.785-14.893,34.306-33.383
	c0.033-0.319,0.05-0.643,0.05-0.971V184.951z M167.834,248.005v-30.408l105.405-21.08v30.406L167.834,248.005z"/>
<path style="fill:#272525;" d="M288.732,177.619c-2.198-1.801-5.092-2.522-7.87-1.967l-66.81,13.36v19.339l59.187-11.836v30.406
	l-59.187,11.838v19.34l59.187-11.838v57.258c-4.637-2.338-9.856-3.684-15.393-3.684c-18.942,0-34.356,15.412-34.356,34.356
	s15.412,34.356,34.356,34.356c18.615,0,33.785-14.893,34.306-33.383c0.033-0.319,0.05-0.643,0.05-0.971v-149.24
	C292.202,182.112,290.93,179.419,288.732,177.619z"/>
<g>
</g>
<g>
</g>
<g>
</g>
<g>
</g>
<g>
</g>
<g>
</g>
<g>
</g>
<g>
</g>
<g>
</g>
<g>
</g>
<g>
</g>
<g>
</g>
<g>
</g>
<g>
</g>
<g>
</g>
</svg>
