<?xml version="1.0" encoding="iso-8859-1"?>
<!-- Generator: Adobe Illustrator 19.0.0, SVG Export Plug-In . SVG Version: 6.00 Build 0)  -->
<svg version="1.1" id="Layer_1" xmlns="http://www.w3.org/2000/svg" xmlns:xlink="http://www.w3.org/1999/xlink" x="0px" y="0px"
	 viewBox="0 0 512 512" style="enable-background:new 0 0 512 512;" xml:space="preserve">
<path style="fill:#334F55;" d="M388.207,369.781v-97.11v-0.803c18.876-3.463,33.192-17.86,34.905-35.464
	c43.052-7.457,76.144-38.712,86.029-65.893c4.752-13.062,3.55-24.254-3.382-31.517c-8.116-8.495-21.846-9.796-40.779-3.869
	c-42.631,13.319-65.49,18.939-76.772,21.297V86.281c0-26.072-9.986-48.094-28.118-62.026c-18.115-13.915-41.968-17.87-67.502-11.063
	c-7.078,2.24-27.468,8.03-36.721,8.03s-29.643-5.79-37.143-8.151c-25.292-6.608-49.184-2.559-67.278,11.399
	c-18.003,13.898-27.92,35.851-27.92,61.811v70.09c-11.388-2.395-34.255-8.043-76.505-21.246
	c-18.942-5.928-32.663-4.618-40.779,3.869c-6.932,7.263-8.133,18.455-3.382,31.517c9.864,27.125,42.836,58.312,85.757,65.852
	c1.694,17.622,16.019,32.038,34.91,35.504v0.803v97.11c0,17.25,7.146,32.847,18.616,44.054h-0.971H97.057H61.714
	c-24.297,0-44.062,19.791-44.062,44.114v35.291c0,4.877,3.95,8.823,8.823,8.823h70.582h44.114h229.391h44.114h70.582
	c4.872,0,8.823-3.946,8.823-8.823v-35.291c0-24.323-19.765-44.114-44.062-44.114h-35.343h-44.114h-0.971
	C381.061,402.628,388.207,387.031,388.207,369.781z"/>
<rect x="141.163" y="175.629" style="fill:#C59A83;" width="229.391" height="8.823"/>
<g>
	<polygon style="fill:#EAE8D2;" points="141.17,255.025 141.17,210.911 141.17,202.088 370.562,202.088 370.562,210.911 
		370.562,255.025 370.562,263.848 141.17,263.848 	"/>
	<path style="fill:#EAE8D2;" d="M388.207,253.671v-41.405c10.248,3.044,17.645,11.128,17.645,20.703
		C405.853,242.542,398.455,250.626,388.207,253.671z"/>
</g>
<g>
	<path style="fill:#C59A83;" d="M470.244,151.961c13.359-4.17,20.601-3.024,22.755-0.776c1.934,2.025,1.762,7.246-0.444,13.294
		c-6.982,19.203-33.635,47.69-72.038,54.47c-5.308-12.566-17.393-22.144-32.31-24.881v-0.803v-18.878
		C399.258,172.257,423.213,166.66,470.244,151.961z"/>
	<path style="fill:#C59A83;" d="M162.228,38.437c13.669-10.537,32.163-13.484,51.605-8.418c2.869,0.913,28.407,8.849,42.033,8.849
		c13.626,0,39.164-7.935,41.65-8.737c19.748-5.239,38.16-2.378,51.825,8.116c13.686,10.511,21.221,27.571,21.221,48.034v71.693
		H141.17V86.281C141.17,65.913,148.649,48.922,162.228,38.437z"/>
	<path style="fill:#C59A83;" d="M19.444,164.48c-2.206-6.048-2.378-11.27-0.444-13.294c2.15-2.249,9.387-3.395,22.755,0.776
		c46.664,14.584,70.604,20.207,81.77,22.375v18.93v0.803c-14.902,2.734-26.98,12.294-32.296,24.842
		C52.96,212.052,26.411,183.641,19.444,164.48z"/>
</g>
<g>
	<path style="fill:#EAE8D2;" d="M105.879,232.968c0-9.574,7.398-17.658,17.645-20.703v41.405
		C113.277,250.626,105.879,242.542,105.879,232.968z"/>
	<polygon style="fill:#EAE8D2;" points="361.739,431.48 361.739,484.416 149.993,484.416 149.993,431.48 185.344,431.48 
		326.388,431.48 	"/>
	<path style="fill:#EAE8D2;" d="M35.297,457.948c0-14.595,11.851-26.468,26.417-26.468h26.52v52.936H35.297
		C35.297,484.416,35.297,457.948,35.297,457.948z"/>
</g>
<rect x="105.872" y="431.488" style="fill:#C5D35E;" width="26.468" height="52.936"/>
<path style="fill:#EAE8D2;" d="M476.435,457.948v26.468h-52.936V431.48h26.52C464.583,431.48,476.435,443.352,476.435,457.948z"/>
<rect x="379.378" y="431.488" style="fill:#C5D35E;" width="26.468" height="52.936"/>
<path style="fill:#E4AD4B;" d="M185.344,413.834c-24.357,0-44.174-19.765-44.174-44.053v-88.288h229.391v88.288
	c0,24.288-19.817,44.053-44.174,44.053H185.344z"/>
<g>
	<rect x="229.391" y="316.792" style="fill:#334F55;" width="52.936" height="17.645"/>
	<path style="fill:#334F55;" d="M317.625,290.316H194.107c-4.872,0-8.823,3.946-8.823,8.823v52.936h17.645v-44.114h105.873v44.114
		h17.646v-52.936C326.448,294.262,322.498,290.316,317.625,290.316z"/>
	<path style="fill:#334F55;" d="M194.107,210.911c-9.732,0-17.645,7.918-17.645,17.645s7.914,17.645,17.645,17.645
		c9.732,0,17.645-7.918,17.645-17.645S203.838,210.911,194.107,210.911z"/>
	<path style="fill:#334F55;" d="M317.625,210.911c-9.732,0-17.645,7.918-17.645,17.645s7.914,17.645,17.645,17.645
		s17.646-7.918,17.646-17.645S327.357,210.911,317.625,210.911z"/>
</g>
<g>
</g>
<g>
</g>
<g>
</g>
<g>
</g>
<g>
</g>
<g>
</g>
<g>
</g>
<g>
</g>
<g>
</g>
<g>
</g>
<g>
</g>
<g>
</g>
<g>
</g>
<g>
</g>
<g>
</g>
</svg>
